<svg t="1582365371033" class="icon" viewBox="0 0 1024 1024" version="1.1" xmlns="http://www.w3.org/2000/svg" p-id="3339" width="200" height="200"><path d="M959.999893 576c0 247.424-200.576 448-448 448S63.999893 823.424 63.999893 576 264.575893 128 511.999893 128s448 200.576 448 448" fill="#FBD971" p-id="3340"></path><path d="M853.333227 286.229333V21.333333c-24.384 92.629333-75.498667 148.48-105.216 174.442667a445.909333 445.909333 0 0 0-444.693334-16.106667C275.199893 156.522667 218.197227 99.562667 191.999893 0v262.762667C112.895893 343.552 63.999893 454.016 63.999893 576l396.586667 151.082667a144.490667 144.490667 0 0 0 102.826667 0L959.999893 576a445.866667 445.866667 0 0 0-106.666666-289.770667" fill="#556080" p-id="3341"></path><path d="M426.66656 469.333333l-25.898667 42.88L362.66656 576l-192-170.666667 256 64M597.333227 469.333333l25.429333 42.88L661.333227 576l192-170.666667-256 64" fill="#FFFFFF" p-id="3342"></path></svg>