<svg t="1587609098128" class="icon" viewBox="0 0 1024 1024" version="1.1" xmlns="http://www.w3.org/2000/svg" p-id="1349" width="200" height="200"><path d="M323.84 888.32h-96c-64 0-115.2-51.2-115.2-115.2V250.88c0-64 51.2-115.2 115.2-115.2H588.8c48.64 0 92.16 30.72 108.8 78.08 6.4 20.48 29.44 30.72 48.64 24.32 20.48-6.4 30.72-29.44 24.32-48.64-26.88-76.8-99.84-129.28-181.76-129.28H229.12c-106.24 0-192 85.76-192 192v522.24c0 106.24 85.76 192 192 192h96c21.76 0 38.4-16.64 38.4-38.4s-17.92-39.68-39.68-39.68z" p-id="1350"></path><path d="M687.36 427.52m-152.32 0a152.32 152.32 0 1 0 304.64 0 152.32 152.32 0 1 0-304.64 0Z" p-id="1351"></path><path d="M687.36 600.32c-165.12 0-299.52 134.4-299.52 299.52 0 8.96 0 17.92 1.28 26.88 1.28 21.76 20.48 37.12 42.24 34.56 21.76-1.28 515.84 3.84 517.12 3.84 19.2 0 35.84-15.36 38.4-34.56 1.28-10.24 1.28-20.48 1.28-30.72-1.28-165.12-135.68-299.52-300.8-299.52zM216.32 350.72c-21.76 0-38.4 16.64-38.4 38.4s16.64 38.4 38.4 38.4h217.6c21.76 0 38.4-16.64 38.4-38.4s-16.64-38.4-38.4-38.4h-217.6zM331.52 581.12h-115.2c-21.76 0-38.4 16.64-38.4 38.4s16.64 38.4 38.4 38.4h115.2c21.76 0 38.4-16.64 38.4-38.4s-17.92-38.4-38.4-38.4z" p-id="1352"></path></svg>